<?xml version="1.0" encoding="utf-8"?>
<!-- Generator: Adobe Illustrator 25.4.1, SVG Export Plug-In . SVG Version: 6.00 Build 0)  -->
<svg version="1.1" id="Layer_1" xmlns="http://www.w3.org/2000/svg" xmlns:xlink="http://www.w3.org/1999/xlink" x="0px" y="0px"
	 viewBox="0 0 576 512" style="enable-background:new 0 0 576 512;" xml:space="preserve">
<style type="text/css">
	.st0{fill:#FFFFFF;}
</style>
<path class="st0" d="M384,341.3c-19.1,25.5-48.6,41.1-80.3,42.6c0.2,2.7,0.3,5.4,0.3,8.1c0,66.3-53.7,120-120,120H32
	c-17.7,0-32-14.3-32-32s14.3-32,32-32h6c18.1,0,30.1-19.8,27.4-37.6c-0.9-6-2.3-12.2-2.3-18.4c0-66.3,54.6-120,120-120
	c3.6,0,6.3,0.1,9,0.3c1.5-31.7,17.1-61.2,42.6-80.3L473.5,12.8c24.6-19.1,61.1-16.6,83.7,5.9c22.5,22.5,25,58.2,5.9,83.7L384,341.3z
	 M277.1,219.5l79.4,77.6L524.7,73.6c4.8-6.4,4.2-15.3-1.5-20.9c-5.6-5.6-14.5-6.3-20.9-1.5L277.1,219.5z M199.1,321.6
	c-4.9-1.1-9.9-1.6-15.1-1.6c-39.8,0-72,32.2-72,72c0,3.8,0.3,7.5,0.8,11.1c3.3,21.4-2.1,43.1-13.7,60l-0.7,0.9H184
	c39.8,0,72-32.2,72-72c0-5.2-0.5-10.2-1.6-15.1L199.1,321.6z"/>
</svg>
