<?xml version="1.0" encoding="utf-8"?>
<!-- Generator: Adobe Illustrator 25.4.1, SVG Export Plug-In . SVG Version: 6.00 Build 0)  -->
<svg version="1.1" id="Layer_1" xmlns="http://www.w3.org/2000/svg" xmlns:xlink="http://www.w3.org/1999/xlink" x="0px" y="0px"
	 viewBox="0 0 576 512" style="enable-background:new 0 0 576 512;" xml:space="preserve">
<style type="text/css">
	.st0{fill:#FFFFFF;}
</style>
<path class="st0" d="M570.9,372.3c-11.3,14.2-38.8,24.3-38.8,24.3L327,470.2v-54.3l150.9-53.8c17.1-6.1,19.8-14.8,5.8-19.4
	c-13.9-4.6-39.1-3.3-56.2,2.9L327,381.1v-56.4c23.2-7.8,47.1-13.6,75.7-16.8c40.9-4.5,90.9,0.6,130.2,15.5
	C577.1,337.4,582.1,358.1,570.9,372.3L570.9,372.3z M346.5,279.8v-139c0-16.3-3-31.3-18.3-35.6c-11.7-3.8-19,7.1-19,23.4v347.9
	l-93.8-29.8V32c39.9,7.4,98,24.9,129.2,35.4C424.1,94.7,451,128.7,451,205.2C451,279.7,405,308,346.5,279.8L346.5,279.8z
	 M43.2,410.2c-45.4-12.8-53-39.5-32.3-54.8c19.1-14.2,51.7-24.9,51.7-24.9l134.5-47.8v54.5l-96.8,34.6c-17.1,6.1-19.7,14.8-5.8,19.4
	s39.1,3.3,56.2-2.9l46.4-16.9v48.8C145.5,429.5,95.7,427.5,43.2,410.2L43.2,410.2z"/>
</svg>
